<svg xmlns="http://www.w3.org/2000/svg" viewBox="0 9.449999809265137 91.0999984741211 46" data-asc="0.789" width="91.0999984741211" height="46"><defs/><g fill="#0095ff"><g transform="translate(0, 0)"><path d="M16.05 16.50L16.30 15.20Q16.10 12.50 12.65 12.50Q10.65 12.50 9.18 13.93Q7.70 15.35 7.70 16.93Q7.70 18.50 9.03 19.68Q10.35 20.85 12.23 21.78Q14.10 22.70 15.97 23.78Q17.85 24.85 19.18 26.55Q20.50 28.25 20.50 30.40Q20.50 34.85 17 37.40Q13.50 39.95 9.45 39.95Q5.40 39.95 2.70 38.48Q0 37 0 34Q0 32.40 1.10 31.10Q2.20 29.80 4.25 29.80Q5.05 29.80 5.70 30.25Q6.35 30.70 6.50 31.45Q6.50 32.20 5.60 32.20Q3.90 32.20 3.90 33.65Q3.95 35.30 5.47 36.65Q7 38 9.78 38Q12.55 38 14.53 36.10Q16.50 34.20 16.50 31.50Q16.50 29.70 15.15 28.25Q13.80 26.80 11.90 25.78Q10.00 24.75 8.08 23.70Q6.15 22.65 4.80 21.15Q3.45 19.65 3.45 17.75Q3.45 14.40 6.33 12.40Q9.20 10.40 12.85 10.40Q15.30 10.40 17.30 11.40Q19.30 12.40 19.35 14.45Q19.35 15.65 18.75 16.45Q18.15 17.25 17.13 17.25Q16.10 17.25 16.05 16.50ZM24.90 23.90Q25.45 23.25 26.65 22.23Q27.85 21.20 28.55 21.20Q29.25 21.20 29.25 23.18Q29.25 25.15 28.20 27.05Q28 27.95 27.90 29.65Q29.35 25.70 30.80 23.70Q32.25 21.70 34.33 21.70Q36.40 21.70 37.95 23.58Q39.50 25.45 39.50 29.48Q39.50 33.50 37.23 36.60Q34.95 39.70 31.25 39.70Q29.35 39.70 27.40 38.30Q27.40 47.85 26.30 52.85Q26.20 53.30 24.98 54.38Q23.75 55.45 23.18 55.45Q22.60 55.45 22.35 54.65Q22.10 53.85 22.10 53.15Q22.10 48 24.20 39.90Q24.55 35.20 24.68 29.60Q24.80 24 24.90 23.90M31.55 37.90Q33 37.90 34.55 35.88Q36.10 33.85 36.10 30.88Q36.10 27.90 35.28 26.13Q34.45 24.35 33.05 24.35Q30.65 24.35 27.60 34.30Q27.50 35.70 27.50 36.50Q28.90 37.90 31.55 37.90ZM55.40 39.70Q53.45 39.70 52.45 38.90Q52.10 38.55 52.10 37.13Q52.10 35.70 52.20 33.30Q50.90 36.55 49.63 38.13Q48.35 39.70 46.35 39.70Q44.35 39.70 42.85 37.83Q41.35 35.95 41.35 31.93Q41.35 27.90 43.63 24.80Q45.90 21.70 49.60 21.70Q51.20 21.70 53.20 23.80Q53.60 23.25 54.63 22.48Q55.65 21.70 56.38 21.70Q57.10 21.70 57.10 23.60Q57.10 24.10 56.83 25.55Q56.55 27 56.20 27.65Q55.75 28.80 55.75 35.80Q55.75 37.15 56.05 37.15Q56.90 37.10 58.40 35.03Q59.90 32.95 61.38 29.70Q62.85 26.45 63.18 26.45Q63.50 26.45 63.50 26.85Q63.50 28.25 62.05 31.30Q58.10 39.70 55.40 39.70M49.30 23.70Q47.90 23.70 46.33 25.78Q44.75 27.85 44.75 30.65Q44.75 33.45 45.58 35.25Q46.40 37.05 47.75 37.05Q49.40 37.05 52.60 28.80Q52.65 28.40 52.73 27.43Q52.80 26.45 52.85 25.95Q52.40 25.15 51.28 24.43Q50.15 23.70 49.30 23.70ZM64.85 26.40L67.60 26.10Q68 26.10 68.30 26.55Q68.60 27 68.60 27.50Q68.60 28 68.28 30.90Q67.95 33.80 67.95 35.48Q67.95 37.15 68.25 37.15Q69.10 37.10 70.60 35.03Q72.10 32.95 73.58 29.70Q75.05 26.45 75.38 26.45Q75.70 26.45 75.70 26.85Q75.70 28.25 74.25 31.30Q70.30 39.70 67.60 39.70Q65.65 39.70 64.65 38.90Q64.30 38.55 64.30 34.55Q64.30 30.55 65.15 27.70Q62.25 27.70 61.10 25.85Q60.50 24.90 60.50 23.70Q60.50 22.50 61 21.60Q61.50 20.70 62.42 20.70Q63.35 20.70 64.13 21.68Q64.90 22.65 64.90 23.85Q64.90 25.05 64.20 26.25Q64.40 26.40 64.85 26.40ZM89.35 41.20L90.70 41.05Q91.10 41.05 91.10 41.45Q91.10 42.15 90.15 42.50Q89.20 42.85 88 42.85Q85.75 42.85 84.22 41.05Q82.70 39.25 80 34.40Q79.35 33.35 79.35 32.80Q79.35 32.05 81.45 31.05Q84.85 29.30 84.85 26.65Q84.85 25.90 84.33 25.38Q83.80 24.85 82.95 24.85Q81.75 24.85 80.10 27.68Q78.45 30.50 77.88 32.98Q77.30 35.45 77.30 38.30Q77.30 39.70 76.50 39.70Q75.35 39.70 74.30 39.38Q73.25 39.05 73.25 38.53Q73.25 38 73.65 33.78Q74.05 29.55 74.10 27.70Q74.30 17.50 75.30 12.10Q75.45 11.65 76.67 10.55Q77.90 9.45 78.65 9.45Q79.40 9.45 79.38 11.33Q79.35 13.20 78.55 19.35Q77.75 25.50 77.55 30.60Q78.45 27.40 80.42 24.55Q82.40 21.70 84.40 21.70Q87.80 21.70 87.80 25Q87.80 27.20 86.50 28.98Q85.20 30.75 83 31.85Q82.55 32.05 82.55 32.30Q82.55 32.55 82.70 32.80Q85.85 38.35 88.05 40.60Q88.65 41.20 89.35 41.20Z"/></g></g></svg>